<svg width="45" height="45" viewBox="0 0 45 45" fill="none" xmlns="http://www.w3.org/2000/svg">
<g id="layer_1" clip-path="url(#clip0_807_673)">
<path id="Vector" d="M44.9999 17.4223C44.9999 11.8137 40.4347 7.26707 34.8446 7.26707C29.2546 7.26707 24.6893 11.8323 24.6893 17.4223C24.6893 18.5963 24.8943 19.7143 25.267 20.7764L24.6893 22.2298L23.1428 18.3354C22.9192 17.7764 22.3788 17.4223 21.8011 17.4223H19.6956L15.298 10.5093L25.472 4.13663C25.9937 3.80123 26.2546 3.16769 26.1055 2.57142C25.9564 1.95651 25.4347 1.5093 24.8198 1.47204L7.37879 -1.34637e-05C6.72661 -0.0559141 6.11171 0.33539 5.88811 0.950297L0.093074 16.9192C-0.111895 17.4969 0.0558069 18.1491 0.540279 18.5404C0.801149 18.7453 1.13655 18.8571 1.45332 18.8571C1.71419 18.8571 1.9937 18.7826 2.2173 18.6335L12.8011 12.0186L16.2297 17.4037H5.81357C5.23593 17.4037 4.69556 17.7578 4.47196 18.2981C3.42848 20.7764 2.8881 23.4223 2.8881 26.1242C2.8881 36.5217 10.6956 45 20.3105 45C29.9254 45 37.1738 37.0807 37.6769 27.1677C41.8881 25.9379 44.9813 22.0248 44.9813 17.4223H44.9999ZM8.23593 2.99999L20.1987 3.98756L4.24835 13.9565L8.23593 2.99999ZM20.3105 42.1118C12.298 42.1118 5.79494 34.9565 5.79494 26.1428C5.79494 24.1491 6.13034 22.1925 6.80115 20.3292H20.7763L23.3105 26.6832C23.5341 27.2422 24.0744 27.5963 24.6521 27.5963C25.2297 27.5963 25.7887 27.2422 25.9937 26.6832L28.5279 20.3292H33.8011C34.472 22.1925 34.8074 24.1491 34.8074 26.1428C34.8074 34.9565 28.3043 42.1118 20.2918 42.1118H20.3105ZM37.621 24.1304C37.4161 22.1366 36.9316 20.1987 36.149 18.3168C35.9254 17.7764 35.4036 17.4223 34.8074 17.4223H27.5589C27.5589 13.4161 30.8198 10.1553 34.826 10.1553C38.8322 10.1553 42.0931 13.4161 42.0931 17.4223C42.0931 20.4223 40.2484 23.0124 37.6397 24.1118L37.621 24.1304Z" fill="white"/>
<path id="Vector_2" d="M10.9006 30.4845C10.5839 29.5714 10.3603 28.6025 10.2485 27.5776H20.3292V26.1242H10.1739C10.1739 25.6398 10.1926 25.1553 10.2485 24.6708H14.5155C15.3168 24.6708 15.969 24.0186 15.969 23.2174C15.969 22.4162 15.3168 21.764 14.5155 21.764H9.00001C8.31057 21.764 7.71429 22.2484 7.58386 22.9193C7.36026 23.9627 7.26709 25.0435 7.26709 26.1242C7.26709 34.1366 13.1367 40.6398 20.3292 40.6398C21.1304 40.6398 21.7826 39.9876 21.7826 39.1863C21.7826 38.3851 21.1304 37.7329 20.3292 37.7329C18.559 37.7329 16.882 37.2112 15.4286 36.2795H26.1429V34.8261H13.6398C12.8199 33.9876 12.1118 33.0186 11.5528 31.9193H29.0497V30.4658H10.9006V30.4845Z" fill="white"/>
</g>
<defs>
<clipPath id="clip0_807_673">
<rect width="45" height="45" fill="white"/>
</clipPath>
</defs>
</svg>
