<svg width="35" height="35" viewBox="0 0 35 35" fill="none" xmlns="http://www.w3.org/2000/svg">
<g id="ei:sc-instagram">
<g id="Group">
<path id="Vector" fill-rule="evenodd" clip-rule="evenodd" d="M17.5 8.40002C15.029 8.40002 14.7189 8.41052 13.748 8.45462C12.7792 8.49872 12.1177 8.65272 11.5388 8.87742C10.9317 9.10608 10.3818 9.46441 9.92742 9.92742C9.46432 10.382 9.10599 10.9322 8.87742 11.5395C8.65272 12.1177 8.49942 12.7792 8.45462 13.748C8.41052 14.7189 8.40002 15.029 8.40002 17.5C8.40002 19.971 8.41052 20.2811 8.45462 21.252C8.49872 22.2208 8.65272 22.8823 8.87742 23.4605C9.11052 24.059 9.42132 24.5665 9.92742 25.0726C10.3818 25.5356 10.9317 25.894 11.5388 26.1226C12.1177 26.3466 12.7792 26.5006 13.748 26.5454C14.7189 26.5895 15.029 26.6 17.5 26.6C19.971 26.6 20.2811 26.5895 21.252 26.5454C22.2208 26.5013 22.8823 26.3473 23.4605 26.1226C24.0679 25.8941 24.618 25.5357 25.0726 25.0726C25.5357 24.618 25.8941 24.0679 26.1226 23.4605C26.3466 22.8823 26.5006 22.2208 26.5454 21.252C26.5895 20.2811 26.6 19.971 26.6 17.5C26.6 15.029 26.5895 14.7189 26.5454 13.748C26.5013 12.7792 26.3473 12.1177 26.1219 11.5395C25.8936 10.9322 25.5355 10.3821 25.0726 9.92742C24.618 9.4643 24.0679 9.10597 23.4605 8.87742C22.8823 8.65342 22.2208 8.49942 21.252 8.45462C20.2811 8.41052 19.971 8.40002 17.5 8.40002ZM17.5 10.0394C19.9297 10.0394 20.2174 10.0492 21.1771 10.0926C22.064 10.1332 22.5463 10.2816 22.8669 10.4062C23.2918 10.5714 23.5949 10.7681 23.9134 11.0866C24.2319 11.4051 24.4286 11.7082 24.5938 12.1331C24.7184 12.4537 24.8668 12.9353 24.9074 13.8229C24.9508 14.7819 24.9606 15.0703 24.9606 17.5C24.9606 19.9297 24.9508 20.2174 24.9074 21.1771C24.8668 22.0647 24.7184 22.5463 24.5938 22.8669C24.4481 23.2622 24.2156 23.6198 23.9134 23.9134C23.6198 24.2156 23.2622 24.4481 22.8669 24.5938C22.5463 24.7184 22.064 24.8668 21.1771 24.9074C20.2181 24.9508 19.9297 24.9606 17.5 24.9606C15.0703 24.9606 14.7819 24.9508 13.8229 24.9074C12.9353 24.8668 12.4537 24.7184 12.1331 24.5938C11.7378 24.4481 11.3802 24.2156 11.0866 23.9134C10.7845 23.6198 10.552 23.2622 10.4062 22.8669C10.2816 22.5463 10.1332 22.0647 10.0926 21.1771C10.0492 20.2181 10.0394 19.9297 10.0394 17.5C10.0394 15.0703 10.0492 14.7826 10.0926 13.8229C10.1332 12.9353 10.2816 12.4537 10.4062 12.1331C10.5714 11.7082 10.7681 11.4051 11.0866 11.0866C11.3802 10.7845 11.7378 10.552 12.1331 10.4062C12.4537 10.2816 12.9353 10.1332 13.8229 10.0926C14.7819 10.0492 15.0703 10.0394 17.5 10.0394Z" fill="white"/>
<path id="Vector_2" fill-rule="evenodd" clip-rule="evenodd" d="M17.5 12.6C16.2004 12.6 14.9541 13.1163 14.0352 14.0352C13.1162 14.9542 12.6 16.2005 12.6 17.5C12.6 18.7996 13.1162 20.0459 14.0352 20.9649C14.9541 21.8838 16.2004 22.4 17.5 22.4C18.7995 22.4 20.0459 21.8838 20.9648 20.9649C21.8837 20.0459 22.4 18.7996 22.4 17.5C22.4 16.2005 21.8837 14.9542 20.9648 14.0352C20.0459 13.1163 18.7995 12.6 17.5 12.6ZM17.5 20.65C16.6645 20.65 15.8633 20.3182 15.2726 19.7274C14.6818 19.1367 14.35 18.3355 14.35 17.5C14.35 16.6646 14.6818 15.8634 15.2726 15.2727C15.8633 14.6819 16.6645 14.35 17.5 14.35C18.3354 14.35 19.1366 14.6819 19.7274 15.2727C20.3181 15.8634 20.65 16.6646 20.65 17.5C20.65 18.3355 20.3181 19.1367 19.7274 19.7274C19.1366 20.3182 18.3354 20.65 17.5 20.65ZM23.59 12.67C23.59 12.8171 23.561 12.9628 23.5047 13.0987C23.4484 13.2345 23.3659 13.358 23.2619 13.462C23.1579 13.566 23.0345 13.6485 22.8986 13.7048C22.7627 13.7611 22.6171 13.79 22.47 13.79C22.3229 13.79 22.1773 13.7611 22.0414 13.7048C21.9055 13.6485 21.782 13.566 21.678 13.462C21.574 13.358 21.4915 13.2345 21.4352 13.0987C21.3789 12.9628 21.35 12.8171 21.35 12.67C21.35 12.373 21.468 12.0881 21.678 11.8781C21.8881 11.668 22.1729 11.55 22.47 11.55C22.767 11.55 23.0519 11.668 23.2619 11.8781C23.472 12.0881 23.59 12.373 23.59 12.67Z" fill="white"/>
</g>
</g>
</svg>
