<svg width="24" height="24" viewBox="0 0 24 24" fill="none" xmlns="http://www.w3.org/2000/svg">
<g id="ri:twitter-line">
<path id="Vector" d="M15.35 5.54999C14.5902 5.54986 13.8606 5.84797 13.3183 6.3802C12.776 6.91243 12.4642 7.63626 12.45 8.39599L12.422 9.97099C12.4205 10.0556 12.4011 10.139 12.3651 10.2156C12.3291 10.2923 12.2773 10.3604 12.2131 10.4155C12.1488 10.4707 12.0737 10.5116 11.9925 10.5357C11.9113 10.5597 11.8259 10.5663 11.742 10.555L10.18 10.342C8.12705 10.062 6.15904 9.11699 4.27004 7.54399C3.67304 10.854 4.84004 13.147 7.65304 14.916L9.40004 16.014C9.48291 16.0661 9.55176 16.1377 9.6006 16.2226C9.64943 16.3074 9.67677 16.4029 9.68022 16.5007C9.68367 16.5986 9.66313 16.6957 9.6204 16.7838C9.57766 16.8719 9.51403 16.9482 9.43505 17.006L7.84304 18.17C8.79004 18.23 9.68904 18.188 10.435 18.04C15.153 17.098 18.29 13.548 18.29 7.69199C18.29 7.21399 17.277 5.54999 15.35 5.54999ZM10.45 8.35999C10.4675 7.39604 10.7689 6.45866 11.3166 5.66521C11.8643 4.87177 12.6338 4.25751 13.529 3.89936C14.4241 3.54121 15.405 3.45507 16.3488 3.65174C17.2926 3.84841 18.1575 4.31914 18.835 5.00499C19.546 4.99999 20.151 5.17999 21.503 4.35899C21.169 5.99899 21.003 6.71199 20.29 7.69099C20.29 15.332 15.593 19.049 10.826 20C7.55904 20.652 2.80604 19.581 1.44604 18.158C2.13904 18.105 4.95904 17.802 6.58905 16.608C5.20904 15.698 -0.278955 12.468 3.32805 3.78599C5.02104 5.76299 6.73804 7.10799 8.47804 7.82299C9.63504 8.29799 9.92004 8.28799 10.451 8.36099L10.45 8.35999Z" fill="white"/>
</g>
</svg>
